<svg width="29" height="19" viewBox="0 0 29 19" fill="none" xmlns="http://www.w3.org/2000/svg">
<path d="M4.74238 9.25C4.74238 8.68333 4.95072 8.19167 5.36738 7.775C5.78405 7.35833 6.27572 7.15 6.84238 7.15C7.40905 7.15 7.90072 7.35833 8.31738 7.775C8.73405 8.19167 8.94238 8.68333 8.94238 9.25C8.94238 9.81667 8.73405 10.3083 8.31738 10.725C7.90072 11.1417 7.40905 11.35 6.84238 11.35C6.27572 11.35 5.78405 11.1417 5.36738 10.725C4.95072 10.3083 4.74238 9.81667 4.74238 9.25ZM0.392383 7.3C0.392383 5.03333 0.95905 3.275 2.09238 2.025C3.24238 0.774999 4.82572 0.149999 6.84238 0.149999C8.85905 0.149999 10.4341 0.774999 11.5674 2.025C12.7174 3.275 13.2924 5.03333 13.2924 7.3V11.2C13.2924 13.5333 12.7174 15.3083 11.5674 16.525C10.4341 17.7417 8.85905 18.35 6.84238 18.35C4.82572 18.35 3.24238 17.7417 2.09238 16.525C0.95905 15.3083 0.392383 13.5333 0.392383 11.2V7.3ZM6.84238 15.35C7.44238 15.35 7.94238 15.2583 8.34238 15.075C8.74238 14.875 9.06738 14.6 9.31738 14.25C9.56738 13.9 9.74238 13.4833 9.84238 13C9.94238 12.5167 9.99238 11.9833 9.99238 11.4V7.1C9.99238 6.55 9.93405 6.03333 9.81738 5.55C9.70072 5.06667 9.51738 4.65 9.26738 4.3C9.01738 3.95 8.69238 3.675 8.29238 3.475C7.89238 3.25833 7.40905 3.15 6.84238 3.15C6.27572 3.15 5.79238 3.25833 5.39238 3.475C4.99238 3.675 4.66738 3.95 4.41738 4.3C4.16738 4.65 3.98405 5.06667 3.86738 5.55C3.75072 6.03333 3.69238 6.55 3.69238 7.1V11.4C3.69238 11.9833 3.74238 12.5167 3.84238 13C3.94238 13.4833 4.11738 13.9 4.36738 14.25C4.61738 14.6 4.94238 14.875 5.34238 15.075C5.74238 15.2583 6.24238 15.35 6.84238 15.35ZM20.45 10.5V5.3L24.8 4.1V3.65H16.1V0.499999H27.5V6L22.85 7.35V7.8H23.45C24.0667 7.8 24.675 7.9 25.275 8.1C25.875 8.28333 26.4 8.575 26.85 8.975C27.3167 9.375 27.6917 9.875 27.975 10.475C28.2583 11.0583 28.4 11.75 28.4 12.55V12.85C28.4 13.6333 28.2667 14.3583 28 15.025C27.75 15.6917 27.3667 16.275 26.85 16.775C26.35 17.2583 25.725 17.6417 24.975 17.925C24.225 18.2083 23.3667 18.35 22.4 18.35C21.4167 18.35 20.525 18.1917 19.725 17.875C18.925 17.5583 18.2417 17.125 17.675 16.575C17.125 16.025 16.7 15.3917 16.4 14.675C16.1 13.9583 15.95 13.2 15.95 12.4V11.35H19.25V12.25C19.25 13.05 19.5083 13.7417 20.025 14.325C20.5417 14.9083 21.3167 15.2 22.35 15.2C23.2333 15.2 23.9083 14.975 24.375 14.525C24.8583 14.075 25.1 13.4833 25.1 12.75C25.1 11.9667 24.8417 11.4 24.325 11.05C23.825 10.6833 23.1833 10.5 22.4 10.5H20.45Z" fill="#633DFF"/>
</svg>
