<svg width="29" height="19" viewBox="0 0 29 19" fill="none" xmlns="http://www.w3.org/2000/svg">
<path d="M4.74238 9.25C4.74238 8.68333 4.95072 8.19167 5.36738 7.775C5.78405 7.35833 6.27572 7.15 6.84238 7.15C7.40905 7.15 7.90072 7.35833 8.31738 7.775C8.73405 8.19167 8.94238 8.68333 8.94238 9.25C8.94238 9.81667 8.73405 10.3083 8.31738 10.725C7.90072 11.1417 7.40905 11.35 6.84238 11.35C6.27572 11.35 5.78405 11.1417 5.36738 10.725C4.95072 10.3083 4.74238 9.81667 4.74238 9.25ZM0.392383 7.3C0.392383 5.03333 0.95905 3.275 2.09238 2.025C3.24238 0.774999 4.82572 0.149999 6.84238 0.149999C8.85905 0.149999 10.4341 0.774999 11.5674 2.025C12.7174 3.275 13.2924 5.03333 13.2924 7.3V11.2C13.2924 13.5333 12.7174 15.3083 11.5674 16.525C10.4341 17.7417 8.85905 18.35 6.84238 18.35C4.82572 18.35 3.24238 17.7417 2.09238 16.525C0.95905 15.3083 0.392383 13.5333 0.392383 11.2V7.3ZM6.84238 15.35C7.44238 15.35 7.94238 15.2583 8.34238 15.075C8.74238 14.875 9.06738 14.6 9.31738 14.25C9.56738 13.9 9.74238 13.4833 9.84238 13C9.94238 12.5167 9.99238 11.9833 9.99238 11.4V7.1C9.99238 6.55 9.93405 6.03333 9.81738 5.55C9.70072 5.06667 9.51738 4.65 9.26738 4.3C9.01738 3.95 8.69238 3.675 8.29238 3.475C7.89238 3.25833 7.40905 3.15 6.84238 3.15C6.27572 3.15 5.79238 3.25833 5.39238 3.475C4.99238 3.675 4.66738 3.95 4.41738 4.3C4.16738 4.65 3.98405 5.06667 3.86738 5.55C3.75072 6.03333 3.69238 6.55 3.69238 7.1V11.4C3.69238 11.9833 3.74238 12.5167 3.84238 13C3.94238 13.4833 4.11738 13.9 4.36738 14.25C4.61738 14.6 4.94238 14.875 5.34238 15.075C5.74238 15.2583 6.24238 15.35 6.84238 15.35ZM24.775 5.45C24.775 4.86667 24.5583 4.36667 24.125 3.95C23.7083 3.51667 23.05 3.3 22.15 3.3C21.25 3.3 20.5333 3.56667 20 4.1C19.4833 4.61667 19.225 5.3 19.225 6.15V8.4H19.675C19.9583 7.81667 20.4167 7.35 21.05 7C21.6833 6.63333 22.4 6.45 23.2 6.45C23.9167 6.45 24.5917 6.58333 25.225 6.85C25.8583 7.1 26.4083 7.46667 26.875 7.95C27.3417 8.41667 27.7083 8.99167 27.975 9.675C28.2417 10.3583 28.375 11.1333 28.375 12V12.3C28.375 13.1833 28.225 14 27.925 14.75C27.6417 15.4833 27.225 16.1167 26.675 16.65C26.1417 17.1833 25.4917 17.6 24.725 17.9C23.9583 18.2 23.1 18.35 22.15 18.35C21.2833 18.35 20.4667 18.2083 19.7 17.925C18.95 17.6417 18.2917 17.25 17.725 16.75C17.175 16.2333 16.7333 15.625 16.4 14.925C16.0833 14.2083 15.925 13.425 15.925 12.575V6.2C15.925 5.28333 16.0917 4.45 16.425 3.7C16.7583 2.95 17.2083 2.31667 17.775 1.8C18.3417 1.26667 18.9917 0.858333 19.725 0.574999C20.475 0.291666 21.2667 0.149999 22.1 0.149999C22.9333 0.149999 23.7083 0.274999 24.425 0.524998C25.1583 0.758332 25.7917 1.10833 26.325 1.575C26.875 2.025 27.3 2.58333 27.6 3.25C27.9167 3.9 28.075 4.63333 28.075 5.45H24.775ZM22.15 15.2C23 15.2 23.7 14.95 24.25 14.45C24.8 13.9333 25.075 13.25 25.075 12.4C25.075 11.55 24.8 10.875 24.25 10.375C23.7 9.85833 23 9.6 22.15 9.6C21.3 9.6 20.6 9.85833 20.05 10.375C19.5 10.875 19.225 11.55 19.225 12.4C19.225 13.25 19.5 13.9333 20.05 14.45C20.6 14.95 21.3 15.2 22.15 15.2Z" fill="#633DFF"/>
</svg>
