<svg width="29" height="19" viewBox="0 0 29 19" fill="none" xmlns="http://www.w3.org/2000/svg">
<path d="M4.74238 9.25C4.74238 8.68333 4.95072 8.19167 5.36738 7.775C5.78405 7.35833 6.27572 7.15 6.84238 7.15C7.40905 7.15 7.90072 7.35833 8.31738 7.775C8.73405 8.19167 8.94238 8.68333 8.94238 9.25C8.94238 9.81667 8.73405 10.3083 8.31738 10.725C7.90072 11.1417 7.40905 11.35 6.84238 11.35C6.27572 11.35 5.78405 11.1417 5.36738 10.725C4.95072 10.3083 4.74238 9.81667 4.74238 9.25ZM0.392383 7.3C0.392383 5.03333 0.95905 3.275 2.09238 2.025C3.24238 0.774999 4.82572 0.149999 6.84238 0.149999C8.85905 0.149999 10.4341 0.774999 11.5674 2.025C12.7174 3.275 13.2924 5.03333 13.2924 7.3V11.2C13.2924 13.5333 12.7174 15.3083 11.5674 16.525C10.4341 17.7417 8.85905 18.35 6.84238 18.35C4.82572 18.35 3.24238 17.7417 2.09238 16.525C0.95905 15.3083 0.392383 13.5333 0.392383 11.2V7.3ZM6.84238 15.35C7.44238 15.35 7.94238 15.2583 8.34238 15.075C8.74238 14.875 9.06738 14.6 9.31738 14.25C9.56738 13.9 9.74238 13.4833 9.84238 13C9.94238 12.5167 9.99238 11.9833 9.99238 11.4V7.1C9.99238 6.55 9.93405 6.03333 9.81738 5.55C9.70072 5.06667 9.51738 4.65 9.26738 4.3C9.01738 3.95 8.69238 3.675 8.29238 3.475C7.89238 3.25833 7.40905 3.15 6.84238 3.15C6.27572 3.15 5.79238 3.25833 5.39238 3.475C4.99238 3.675 4.66738 3.95 4.41738 4.3C4.16738 4.65 3.98405 5.06667 3.86738 5.55C3.75072 6.03333 3.69238 6.55 3.69238 7.1V11.4C3.69238 11.9833 3.74238 12.5167 3.84238 13C3.94238 13.4833 4.11738 13.9 4.36738 14.25C4.61738 14.6 4.94238 14.875 5.34238 15.075C5.74238 15.2583 6.24238 15.35 6.84238 15.35ZM22.15 18.35C21.1667 18.35 20.2833 18.2333 19.5 18C18.7167 17.75 18.05 17.4083 17.5 16.975C16.95 16.5417 16.525 16.0333 16.225 15.45C15.925 14.85 15.775 14.1833 15.775 13.45V13.3C15.775 12.6833 15.8583 12.1417 16.025 11.675C16.2083 11.2083 16.4417 10.8083 16.725 10.475C17.025 10.1417 17.3583 9.86667 17.725 9.65C18.0917 9.43333 18.475 9.26667 18.875 9.15V8.7C18.525 8.56667 18.1833 8.39167 17.85 8.175C17.5333 7.95833 17.25 7.7 17 7.4C16.7667 7.08333 16.575 6.71667 16.425 6.3C16.2917 5.86667 16.225 5.38333 16.225 4.85V4.7C16.225 3.98333 16.3917 3.34167 16.725 2.775C17.0583 2.20833 17.5 1.73333 18.05 1.35C18.6 0.949999 19.225 0.649999 19.925 0.449999C20.6417 0.249999 21.3833 0.149999 22.15 0.149999C22.9167 0.149999 23.65 0.249999 24.35 0.449999C25.0667 0.649999 25.7 0.949999 26.25 1.35C26.8 1.73333 27.2417 2.20833 27.575 2.775C27.9083 3.34167 28.075 3.98333 28.075 4.7V4.85C28.075 5.38333 28 5.86667 27.85 6.3C27.7167 6.71667 27.525 7.08333 27.275 7.4C27.0417 7.7 26.7583 7.95833 26.425 8.175C26.1083 8.39167 25.775 8.56667 25.425 8.7V9.15C25.825 9.26667 26.2083 9.43333 26.575 9.65C26.9417 9.86667 27.2667 10.1417 27.55 10.475C27.85 10.8083 28.0833 11.2083 28.25 11.675C28.4333 12.1417 28.525 12.6833 28.525 13.3V13.45C28.525 14.1833 28.375 14.85 28.075 15.45C27.775 16.05 27.35 16.5667 26.8 17C26.25 17.4167 25.575 17.75 24.775 18C23.9917 18.2333 23.1167 18.35 22.15 18.35ZM22.15 15.2C23.1333 15.2 23.8917 14.9833 24.425 14.55C24.9583 14.1 25.225 13.5333 25.225 12.85C25.225 12.1667 24.9583 11.6083 24.425 11.175C23.8917 10.725 23.1333 10.5 22.15 10.5C21.1667 10.5 20.4083 10.725 19.875 11.175C19.3417 11.6083 19.075 12.1667 19.075 12.85C19.075 13.5333 19.3417 14.1 19.875 14.55C20.4083 14.9833 21.1667 15.2 22.15 15.2ZM22.15 3.3C21.4 3.3 20.775 3.49167 20.275 3.875C19.775 4.25833 19.525 4.74167 19.525 5.325C19.525 5.90833 19.775 6.39167 20.275 6.775C20.775 7.15833 21.4 7.35 22.15 7.35C22.9 7.35 23.525 7.15833 24.025 6.775C24.525 6.39167 24.775 5.90833 24.775 5.325C24.775 4.74167 24.525 4.25833 24.025 3.875C23.525 3.49167 22.9 3.3 22.15 3.3Z" fill="#633DFF"/>
</svg>
