<svg width="29" height="19" viewBox="0 0 29 19" fill="none" xmlns="http://www.w3.org/2000/svg">
<path d="M4.74238 9.25C4.74238 8.68333 4.95072 8.19167 5.36738 7.775C5.78405 7.35833 6.27572 7.15 6.84238 7.15C7.40905 7.15 7.90072 7.35833 8.31738 7.775C8.73405 8.19167 8.94238 8.68333 8.94238 9.25C8.94238 9.81667 8.73405 10.3083 8.31738 10.725C7.90072 11.1417 7.40905 11.35 6.84238 11.35C6.27572 11.35 5.78405 11.1417 5.36738 10.725C4.95072 10.3083 4.74238 9.81667 4.74238 9.25ZM0.392383 7.3C0.392383 5.03333 0.95905 3.275 2.09238 2.025C3.24238 0.774999 4.82572 0.149999 6.84238 0.149999C8.85905 0.149999 10.4341 0.774999 11.5674 2.025C12.7174 3.275 13.2924 5.03333 13.2924 7.3V11.2C13.2924 13.5333 12.7174 15.3083 11.5674 16.525C10.4341 17.7417 8.85905 18.35 6.84238 18.35C4.82572 18.35 3.24238 17.7417 2.09238 16.525C0.95905 15.3083 0.392383 13.5333 0.392383 11.2V7.3ZM6.84238 15.35C7.44238 15.35 7.94238 15.2583 8.34238 15.075C8.74238 14.875 9.06738 14.6 9.31738 14.25C9.56738 13.9 9.74238 13.4833 9.84238 13C9.94238 12.5167 9.99238 11.9833 9.99238 11.4V7.1C9.99238 6.55 9.93405 6.03333 9.81738 5.55C9.70072 5.06667 9.51738 4.65 9.26738 4.3C9.01738 3.95 8.69238 3.675 8.29238 3.475C7.89238 3.25833 7.40905 3.15 6.84238 3.15C6.27572 3.15 5.79238 3.25833 5.39238 3.475C4.99238 3.675 4.66738 3.95 4.41738 4.3C4.16738 4.65 3.98405 5.06667 3.86738 5.55C3.75072 6.03333 3.69238 6.55 3.69238 7.1V11.4C3.69238 11.9833 3.74238 12.5167 3.84238 13C3.94238 13.4833 4.11738 13.9 4.36738 14.25C4.61738 14.6 4.94238 14.875 5.34238 15.075C5.74238 15.2583 6.24238 15.35 6.84238 15.35ZM21.1 14.85V2.15H20.65L19 8.15H15.85V7.85L17.95 0.499999H24.4V14.85H28.75V18H16.15V14.85H21.1Z" fill="#633DFF"/>
</svg>
