<svg width="29" height="19" viewBox="0 0 29 19" fill="none" xmlns="http://www.w3.org/2000/svg">
<path d="M4.74238 9.25C4.74238 8.68333 4.95072 8.19167 5.36738 7.775C5.78405 7.35833 6.27572 7.15 6.84238 7.15C7.40905 7.15 7.90072 7.35833 8.31738 7.775C8.73405 8.19167 8.94238 8.68333 8.94238 9.25C8.94238 9.81667 8.73405 10.3083 8.31738 10.725C7.90072 11.1417 7.40905 11.35 6.84238 11.35C6.27572 11.35 5.78405 11.1417 5.36738 10.725C4.95072 10.3083 4.74238 9.81667 4.74238 9.25ZM0.392383 7.3C0.392383 5.03333 0.95905 3.275 2.09238 2.025C3.24238 0.774999 4.82572 0.149999 6.84238 0.149999C8.85905 0.149999 10.4341 0.774999 11.5674 2.025C12.7174 3.275 13.2924 5.03333 13.2924 7.3V11.2C13.2924 13.5333 12.7174 15.3083 11.5674 16.525C10.4341 17.7417 8.85905 18.35 6.84238 18.35C4.82572 18.35 3.24238 17.7417 2.09238 16.525C0.95905 15.3083 0.392383 13.5333 0.392383 11.2V7.3ZM6.84238 15.35C7.44238 15.35 7.94238 15.2583 8.34238 15.075C8.74238 14.875 9.06738 14.6 9.31738 14.25C9.56738 13.9 9.74238 13.4833 9.84238 13C9.94238 12.5167 9.99238 11.9833 9.99238 11.4V7.1C9.99238 6.55 9.93405 6.03333 9.81738 5.55C9.70072 5.06667 9.51738 4.65 9.26738 4.3C9.01738 3.95 8.69238 3.675 8.29238 3.475C7.89238 3.25833 7.40905 3.15 6.84238 3.15C6.27572 3.15 5.79238 3.25833 5.39238 3.475C4.99238 3.675 4.66738 3.95 4.41738 4.3C4.16738 4.65 3.98405 5.06667 3.86738 5.55C3.75072 6.03333 3.69238 6.55 3.69238 7.1V11.4C3.69238 11.9833 3.74238 12.5167 3.84238 13C3.94238 13.4833 4.11738 13.9 4.36738 14.25C4.61738 14.6 4.94238 14.875 5.34238 15.075C5.74238 15.2583 6.24238 15.35 6.84238 15.35ZM19.525 13.05C19.525 13.6333 19.7333 14.1417 20.15 14.575C20.5833 14.9917 21.25 15.2 22.15 15.2C23.05 15.2 23.7583 14.9417 24.275 14.425C24.8083 13.8917 25.075 13.2 25.075 12.35V10.1H24.625C24.3917 10.6833 24.0083 11.1583 23.475 11.525C22.9417 11.875 22.1833 12.05 21.2 12.05C20.45 12.05 19.75 11.9167 19.1 11.65C18.4667 11.3667 17.9083 10.975 17.425 10.475C16.9583 9.975 16.5917 9.375 16.325 8.675C16.0583 7.975 15.925 7.2 15.925 6.35V6.05C15.925 5.21667 16.075 4.44167 16.375 3.725C16.675 2.99167 17.0917 2.36667 17.625 1.85C18.175 1.31667 18.8333 0.899999 19.6 0.599999C20.3833 0.299999 21.25 0.149999 22.2 0.149999C23.0667 0.149999 23.875 0.291666 24.625 0.574999C25.3917 0.858333 26.05 1.25833 26.6 1.775C27.15 2.275 27.5833 2.88333 27.9 3.6C28.2167 4.3 28.375 5.075 28.375 5.925V12.3C28.375 13.25 28.2167 14.1 27.9 14.85C27.5833 15.6 27.15 16.2333 26.6 16.75C26.05 17.2667 25.4 17.6667 24.65 17.95C23.9167 18.2167 23.1167 18.35 22.25 18.35C21.4 18.35 20.6083 18.2333 19.875 18C19.1417 17.75 18.5 17.4 17.95 16.95C17.4167 16.4833 16.9917 15.925 16.675 15.275C16.375 14.625 16.225 13.8833 16.225 13.05H19.525ZM22.15 3.3C21.3 3.3 20.6 3.55833 20.05 4.075C19.5 4.575 19.225 5.25 19.225 6.1C19.225 6.95 19.5 7.63333 20.05 8.15C20.6 8.65 21.3 8.9 22.15 8.9C23 8.9 23.7 8.65 24.25 8.15C24.8 7.63333 25.075 6.95 25.075 6.1C25.075 5.25 24.8 4.575 24.25 4.075C23.7 3.55833 23 3.3 22.15 3.3Z" fill="#633DFF"/>
</svg>
