<svg width="29" height="19" viewBox="0 0 29 19" fill="none" xmlns="http://www.w3.org/2000/svg">
<path d="M4.74238 9.25C4.74238 8.68333 4.95072 8.19167 5.36738 7.775C5.78405 7.35833 6.27572 7.15 6.84238 7.15C7.40905 7.15 7.90072 7.35833 8.31738 7.775C8.73405 8.19167 8.94238 8.68333 8.94238 9.25C8.94238 9.81667 8.73405 10.3083 8.31738 10.725C7.90072 11.1417 7.40905 11.35 6.84238 11.35C6.27572 11.35 5.78405 11.1417 5.36738 10.725C4.95072 10.3083 4.74238 9.81667 4.74238 9.25ZM0.392383 7.3C0.392383 5.03333 0.95905 3.275 2.09238 2.025C3.24238 0.774999 4.82572 0.149999 6.84238 0.149999C8.85905 0.149999 10.4341 0.774999 11.5674 2.025C12.7174 3.275 13.2924 5.03333 13.2924 7.3V11.2C13.2924 13.5333 12.7174 15.3083 11.5674 16.525C10.4341 17.7417 8.85905 18.35 6.84238 18.35C4.82572 18.35 3.24238 17.7417 2.09238 16.525C0.95905 15.3083 0.392383 13.5333 0.392383 11.2V7.3ZM6.84238 15.35C7.44238 15.35 7.94238 15.2583 8.34238 15.075C8.74238 14.875 9.06738 14.6 9.31738 14.25C9.56738 13.9 9.74238 13.4833 9.84238 13C9.94238 12.5167 9.99238 11.9833 9.99238 11.4V7.1C9.99238 6.55 9.93405 6.03333 9.81738 5.55C9.70072 5.06667 9.51738 4.65 9.26738 4.3C9.01738 3.95 8.69238 3.675 8.29238 3.475C7.89238 3.25833 7.40905 3.15 6.84238 3.15C6.27572 3.15 5.79238 3.25833 5.39238 3.475C4.99238 3.675 4.66738 3.95 4.41738 4.3C4.16738 4.65 3.98405 5.06667 3.86738 5.55C3.75072 6.03333 3.69238 6.55 3.69238 7.1V11.4C3.69238 11.9833 3.74238 12.5167 3.84238 13C3.94238 13.4833 4.11738 13.9 4.36738 14.25C4.61738 14.6 4.94238 14.875 5.34238 15.075C5.74238 15.2583 6.24238 15.35 6.84238 15.35ZM28.425 14.85V18H16.125V14.55C16.125 13.6333 16.2583 12.85 16.525 12.2C16.8083 11.55 17.2 11 17.7 10.55C18.2167 10.1 18.8333 9.73333 19.55 9.45C20.2667 9.15 21.075 8.9 21.975 8.7C22.6417 8.55 23.1833 8.38333 23.6 8.2C24.0333 8 24.375 7.78333 24.625 7.55C24.875 7.3 25.0417 7.03333 25.125 6.75C25.225 6.45 25.275 6.11667 25.275 5.75C25.275 5.05 25.0167 4.46667 24.5 4C24 3.53333 23.3 3.3 22.4 3.3C21.45 3.3 20.6917 3.59167 20.125 4.175C19.5583 4.74167 19.275 5.53333 19.275 6.55V7.65H15.975V6.25C15.975 5.43333 16.1167 4.65833 16.4 3.925C16.7 3.175 17.1167 2.525 17.65 1.975C18.2 1.40833 18.8667 0.966666 19.65 0.65C20.4333 0.316666 21.3167 0.149999 22.3 0.149999C23.35 0.149999 24.2667 0.308332 25.05 0.624999C25.8333 0.924999 26.4833 1.325 27 1.825C27.5333 2.325 27.925 2.90833 28.175 3.575C28.4417 4.225 28.575 4.9 28.575 5.6V5.9C28.575 7.36667 28.1583 8.58333 27.325 9.55C26.5083 10.5167 25.1667 11.2167 23.3 11.65C22.5167 11.8333 21.8667 12.025 21.35 12.225C20.85 12.4083 20.4583 12.6167 20.175 12.85C19.8917 13.0833 19.6917 13.3417 19.575 13.625C19.475 13.8917 19.425 14.2 19.425 14.55V14.85H28.425Z" fill="#633DFF"/>
</svg>
