<svg width="29" height="18" viewBox="0 0 29 18" fill="none" xmlns="http://www.w3.org/2000/svg">
<path d="M5.79238 14.85V2.15H5.34238L3.69238 8.15H0.542383V7.85L2.64238 0.499999H9.09238V14.85H13.4424V18H0.842383V14.85H5.79238ZM28.425 14.85V18H16.125V14.55C16.125 13.6333 16.2583 12.85 16.525 12.2C16.8083 11.55 17.2 11 17.7 10.55C18.2167 10.1 18.8333 9.73333 19.55 9.45C20.2667 9.15 21.075 8.9 21.975 8.7C22.6417 8.55 23.1833 8.38333 23.6 8.2C24.0333 8 24.375 7.78333 24.625 7.55C24.875 7.3 25.0417 7.03333 25.125 6.75C25.225 6.45 25.275 6.11667 25.275 5.75C25.275 5.05 25.0167 4.46667 24.5 4C24 3.53333 23.3 3.3 22.4 3.3C21.45 3.3 20.6917 3.59167 20.125 4.175C19.5583 4.74167 19.275 5.53333 19.275 6.55V7.65H15.975V6.25C15.975 5.43333 16.1167 4.65833 16.4 3.925C16.7 3.175 17.1167 2.525 17.65 1.975C18.2 1.40833 18.8667 0.966666 19.65 0.65C20.4333 0.316666 21.3167 0.149999 22.3 0.149999C23.35 0.149999 24.2667 0.308332 25.05 0.624999C25.8333 0.924999 26.4833 1.325 27 1.825C27.5333 2.325 27.925 2.90833 28.175 3.575C28.4417 4.225 28.575 4.9 28.575 5.6V5.9C28.575 7.36667 28.1583 8.58333 27.325 9.55C26.5083 10.5167 25.1667 11.2167 23.3 11.65C22.5167 11.8333 21.8667 12.025 21.35 12.225C20.85 12.4083 20.4583 12.6167 20.175 12.85C19.8917 13.0833 19.6917 13.3417 19.575 13.625C19.475 13.8917 19.425 14.2 19.425 14.55V14.85H28.425Z" fill="#633DFF"/>
</svg>
