<svg width="29" height="19" viewBox="0 0 29 19" fill="none" xmlns="http://www.w3.org/2000/svg">
<path d="M5.79238 14.85V2.15H5.34238L3.69238 8.15H0.542383V7.85L2.64238 0.499999H9.09238V14.85H13.4424V18H0.842383V14.85H5.79238ZM20.05 9.25C20.05 8.68333 20.2583 8.19167 20.675 7.775C21.0917 7.35833 21.5833 7.15 22.15 7.15C22.7167 7.15 23.2083 7.35833 23.625 7.775C24.0417 8.19167 24.25 8.68333 24.25 9.25C24.25 9.81667 24.0417 10.3083 23.625 10.725C23.2083 11.1417 22.7167 11.35 22.15 11.35C21.5833 11.35 21.0917 11.1417 20.675 10.725C20.2583 10.3083 20.05 9.81667 20.05 9.25ZM15.7 7.3C15.7 5.03333 16.2667 3.275 17.4 2.025C18.55 0.774999 20.1333 0.149999 22.15 0.149999C24.1667 0.149999 25.7417 0.774999 26.875 2.025C28.025 3.275 28.6 5.03333 28.6 7.3V11.2C28.6 13.5333 28.025 15.3083 26.875 16.525C25.7417 17.7417 24.1667 18.35 22.15 18.35C20.1333 18.35 18.55 17.7417 17.4 16.525C16.2667 15.3083 15.7 13.5333 15.7 11.2V7.3ZM22.15 15.35C22.75 15.35 23.25 15.2583 23.65 15.075C24.05 14.875 24.375 14.6 24.625 14.25C24.875 13.9 25.05 13.4833 25.15 13C25.25 12.5167 25.3 11.9833 25.3 11.4V7.1C25.3 6.55 25.2417 6.03333 25.125 5.55C25.0083 5.06667 24.825 4.65 24.575 4.3C24.325 3.95 24 3.675 23.6 3.475C23.2 3.25833 22.7167 3.15 22.15 3.15C21.5833 3.15 21.1 3.25833 20.7 3.475C20.3 3.675 19.975 3.95 19.725 4.3C19.475 4.65 19.2917 5.06667 19.175 5.55C19.0583 6.03333 19 6.55 19 7.1V11.4C19 11.9833 19.05 12.5167 19.15 13C19.25 13.4833 19.425 13.9 19.675 14.25C19.925 14.6 20.25 14.875 20.65 15.075C21.05 15.2583 21.55 15.35 22.15 15.35Z" fill="#633DFF"/>
</svg>
