<svg width="30" height="19" viewBox="0 0 30 19" fill="none" xmlns="http://www.w3.org/2000/svg">
<path d="M4.74238 9.25C4.74238 8.68333 4.95072 8.19167 5.36738 7.775C5.78405 7.35833 6.27572 7.15 6.84238 7.15C7.40905 7.15 7.90072 7.35833 8.31738 7.775C8.73405 8.19167 8.94238 8.68333 8.94238 9.25C8.94238 9.81667 8.73405 10.3083 8.31738 10.725C7.90072 11.1417 7.40905 11.35 6.84238 11.35C6.27572 11.35 5.78405 11.1417 5.36738 10.725C4.95072 10.3083 4.74238 9.81667 4.74238 9.25ZM0.392383 7.3C0.392383 5.03333 0.95905 3.275 2.09238 2.025C3.24238 0.774999 4.82572 0.149999 6.84238 0.149999C8.85905 0.149999 10.4341 0.774999 11.5674 2.025C12.7174 3.275 13.2924 5.03333 13.2924 7.3V11.2C13.2924 13.5333 12.7174 15.3083 11.5674 16.525C10.4341 17.7417 8.85905 18.35 6.84238 18.35C4.82572 18.35 3.24238 17.7417 2.09238 16.525C0.95905 15.3083 0.392383 13.5333 0.392383 11.2V7.3ZM6.84238 15.35C7.44238 15.35 7.94238 15.2583 8.34238 15.075C8.74238 14.875 9.06738 14.6 9.31738 14.25C9.56738 13.9 9.74238 13.4833 9.84238 13C9.94238 12.5167 9.99238 11.9833 9.99238 11.4V7.1C9.99238 6.55 9.93405 6.03333 9.81738 5.55C9.70072 5.06667 9.51738 4.65 9.26738 4.3C9.01738 3.95 8.69238 3.675 8.29238 3.475C7.89238 3.25833 7.40905 3.15 6.84238 3.15C6.27572 3.15 5.79238 3.25833 5.39238 3.475C4.99238 3.675 4.66738 3.95 4.41738 4.3C4.16738 4.65 3.98405 5.06667 3.86738 5.55C3.75072 6.03333 3.69238 6.55 3.69238 7.1V11.4C3.69238 11.9833 3.74238 12.5167 3.84238 13C3.94238 13.4833 4.11738 13.9 4.36738 14.25C4.61738 14.6 4.94238 14.875 5.34238 15.075C5.74238 15.2583 6.24238 15.35 6.84238 15.35ZM16.15 10.2V0.499999H27.85V3.65H19.45V8.4H19.9C20.1333 7.75 20.5667 7.19167 21.2 6.725C21.85 6.24167 22.7167 6 23.8 6C24.6167 6 25.35 6.14167 26 6.425C26.65 6.70833 27.2 7.1 27.65 7.6C28.1 8.1 28.4417 8.7 28.675 9.4C28.925 10.1 29.05 10.8667 29.05 11.7V11.85C29.05 12.7333 28.9 13.5667 28.6 14.35C28.3167 15.1333 27.8917 15.825 27.325 16.425C26.775 17.0083 26.0917 17.475 25.275 17.825C24.4583 18.175 23.5167 18.35 22.45 18.35C21.3833 18.35 20.4417 18.2083 19.625 17.925C18.8083 17.625 18.1167 17.2167 17.55 16.7C17 16.1667 16.575 15.5417 16.275 14.825C15.9917 14.0917 15.85 13.3 15.85 12.45V11.85H19.15V12.15C19.15 13.0333 19.4167 13.7667 19.95 14.35C20.5 14.9167 21.3 15.2 22.35 15.2C23.4 15.2 24.225 14.9167 24.825 14.35C25.4417 13.7833 25.75 13 25.75 12C25.75 11.05 25.525 10.3417 25.075 9.875C24.625 9.39167 24.0333 9.15 23.3 9.15C22.8167 9.15 22.425 9.25833 22.125 9.475C21.825 9.675 21.6333 9.91667 21.55 10.2H16.15Z" fill="#633DFF"/>
</svg>
