<svg width="29" height="19" viewBox="0 0 29 19" fill="none" xmlns="http://www.w3.org/2000/svg">
<path d="M5.79238 14.85V2.15H5.34238L3.69238 8.15H0.542383V7.85L2.64238 0.499999H9.09238V14.85H13.4424V18H0.842383V14.85H5.79238ZM20.45 10.5V5.3L24.8 4.1V3.65H16.1V0.499999H27.5V6L22.85 7.35V7.8H23.45C24.0667 7.8 24.675 7.9 25.275 8.1C25.875 8.28333 26.4 8.575 26.85 8.975C27.3167 9.375 27.6917 9.875 27.975 10.475C28.2583 11.0583 28.4 11.75 28.4 12.55V12.85C28.4 13.6333 28.2667 14.3583 28 15.025C27.75 15.6917 27.3667 16.275 26.85 16.775C26.35 17.2583 25.725 17.6417 24.975 17.925C24.225 18.2083 23.3667 18.35 22.4 18.35C21.4167 18.35 20.525 18.1917 19.725 17.875C18.925 17.5583 18.2417 17.125 17.675 16.575C17.125 16.025 16.7 15.3917 16.4 14.675C16.1 13.9583 15.95 13.2 15.95 12.4V11.35H19.25V12.25C19.25 13.05 19.5083 13.7417 20.025 14.325C20.5417 14.9083 21.3167 15.2 22.35 15.2C23.2333 15.2 23.9083 14.975 24.375 14.525C24.8583 14.075 25.1 13.4833 25.1 12.75C25.1 11.9667 24.8417 11.4 24.325 11.05C23.825 10.6833 23.1833 10.5 22.4 10.5H20.45Z" fill="#633DFF"/>
</svg>
