<svg width="41" height="41" viewBox="0 0 41 41" fill="none" xmlns="http://www.w3.org/2000/svg">
<g filter="url(#filter0_d_2951_31)">
<path d="M18.7084 13.3719C16.8662 13.3719 15.365 11.8726 15.365 10.0285C15.365 8.18438 16.8643 6.68506 18.7084 6.68506C19.9482 6.68506 21.0794 7.36498 21.6606 8.45944L20.4809 9.08707C20.1303 8.43039 19.4523 8.02166 18.7084 8.02166C17.6023 8.02166 16.7035 8.92047 16.7035 10.0266C16.7035 11.1326 17.6023 12.0315 18.7084 12.0315V13.3681V13.3719Z" fill="#633DFF"/>
<path d="M17.3718 21.3934H8.68004C6.09982 21.3934 4 19.2935 4 16.7133V4.68004C4 2.09982 6.09982 0 8.68004 0H20.7133C23.2935 0 25.3934 2.09982 25.3934 4.68004V5.34834H24.0568V4.68004C24.0568 2.83786 22.5574 1.3366 20.7133 1.3366H8.68004C6.83592 1.3366 5.3366 2.83592 5.3366 4.68004V16.7133C5.3366 18.5555 6.83592 20.0568 8.68004 20.0568H17.3718V21.3934Z" fill="#633DFF"/>
<path d="M17.3718 5.34834H12.0234C10.5493 5.34834 9.35022 4.14927 9.35022 2.6732V0.6683C9.35022 0.298314 9.64853 0 10.0185 0H19.3786C19.7486 0 20.0469 0.298314 20.0469 0.6683V2.6732C20.0469 4.14734 18.8478 5.34834 17.3737 5.34834H17.3718ZM10.6849 1.3366V2.6732C10.6849 3.41124 11.2854 4.0098 12.0215 4.0098H17.3698C18.1059 4.0098 18.7064 3.4093 18.7064 2.6732V1.3366H10.6849Z" fill="#633DFF"/>
<path d="M10.685 13.3719C8.84281 13.3719 7.34155 11.8726 7.34155 10.0285C7.34155 8.18438 8.84087 6.68506 10.685 6.68506C12.5291 6.68506 14.0284 8.18438 14.0284 10.0285C14.0284 11.8726 12.5291 13.3719 10.685 13.3719ZM10.685 8.0236C9.57891 8.0236 8.68009 8.92241 8.68009 10.0285C8.68009 11.1346 9.57891 12.0334 10.685 12.0334C11.7911 12.0334 12.6899 11.1346 12.6899 10.0285C12.6899 8.92241 11.7911 8.0236 10.685 8.0236Z" fill="#633DFF"/>
<path d="M16.7016 15.3767H11.3533V16.7133H16.7016V15.3767Z" fill="#633DFF"/>
<path d="M12.6898 24.0686H6.00488V25.4052H12.6898V24.0686Z" fill="#633DFF"/>
<path d="M17.3699 27.4099H10.6849V28.7465H17.3699V27.4099Z" fill="#633DFF"/>
<path d="M15.3669 30.7534H7.34338V32.09H15.3669V30.7534Z" fill="#633DFF"/>
<path d="M19.7002 32.0068L19.0513 30.8387C21.9221 29.2464 22.0499 25.4284 22.0499 25.3896L23.3865 25.4226C23.3826 25.6105 23.2315 30.0484 19.7002 32.0068Z" fill="#633DFF"/>
<path d="M33.7597 32.0068C30.2283 30.0484 30.0772 25.6105 30.0734 25.4226L31.41 25.3896C31.41 25.4284 31.5533 29.2561 34.4086 30.8407L33.7597 32.0087V32.0068Z" fill="#633DFF"/>
<path d="M26.73 27.41C21.7439 27.41 17.3699 22.0519 17.3699 15.9423C17.3699 10.284 21.3932 6.0166 26.73 6.0166C32.0667 6.0166 36.09 10.284 36.09 15.9423C36.09 22.0519 31.7161 27.41 26.73 27.41ZM26.73 7.3532C22.0809 7.3532 18.7065 10.964 18.7065 15.9404C18.7065 21.3371 22.4548 26.0714 26.73 26.0714C31.0051 26.0714 34.7534 21.3371 34.7534 15.9404C34.7534 10.964 31.379 7.3532 26.73 7.3532Z" fill="#633DFF"/>
<path d="M30.3834 13.92C29.1281 13.92 27.7664 13.7747 26.5092 13.333C24.8626 12.7577 22.726 12.6008 21.434 12.6996L21.3313 11.3669C22.8054 11.2545 25.1145 11.4269 26.9528 12.072C30.2245 13.2188 34.5346 12.0701 34.5791 12.0584L34.9317 13.3485C34.8058 13.3834 32.7931 13.9219 30.3873 13.9219L30.3834 13.92Z" fill="#633DFF"/>
</g>
<defs>
<filter id="filter0_d_2951_31" x="0" y="0" width="40.0901" height="40.0901" filterUnits="userSpaceOnUse" color-interpolation-filters="sRGB">
<feFlood flood-opacity="0" result="BackgroundImageFix"/>
<feColorMatrix in="SourceAlpha" type="matrix" values="0 0 0 0 0 0 0 0 0 0 0 0 0 0 0 0 0 0 127 0" result="hardAlpha"/>
<feOffset dy="4"/>
<feGaussianBlur stdDeviation="2"/>
<feComposite in2="hardAlpha" operator="out"/>
<feColorMatrix type="matrix" values="0 0 0 0 0 0 0 0 0 0 0 0 0 0 0 0 0 0 0.25 0"/>
<feBlend mode="normal" in2="BackgroundImageFix" result="effect1_dropShadow_2951_31"/>
<feBlend mode="normal" in="SourceGraphic" in2="effect1_dropShadow_2951_31" result="shape"/>
</filter>
</defs>
</svg>
